<?xml version="1.0" encoding="utf-8"?>
<!-- Generator: Adobe Illustrator 21.1.0, SVG Export Plug-In . SVG Version: 6.00 Build 0)  -->
<svg version="1.1" id="Layer_1" xmlns="http://www.w3.org/2000/svg" xmlns:xlink="http://www.w3.org/1999/xlink" x="0px" y="0px"
	 viewBox="0 0 1000 161.943" enable-background="new 0 0 1000 161.943" xml:space="preserve">
<g>
	<path fill="#B3B3B3" stroke="#666666" stroke-width="2" stroke-miterlimit="10" d="M227.204,106.655c0-4.255-1.502-7.522-4.506-9.8
		s-8.412-4.682-16.221-7.21c-7.811-2.528-13.995-5.018-18.55-7.473c-12.417-6.708-18.625-15.745-18.625-27.111
		c0-5.907,1.663-11.178,4.994-15.81c3.329-4.63,8.111-8.248,14.344-10.852c6.233-2.603,13.23-3.905,20.991-3.905
		c7.81,0,14.768,1.415,20.878,4.244c6.107,2.829,10.852,6.823,14.232,11.979c3.379,5.157,5.069,11.015,5.069,17.573h-22.531
		c0-5.006-1.577-8.899-4.731-11.678c-3.154-2.778-7.585-4.168-13.293-4.168c-5.508,0-9.789,1.164-12.842,3.493
		c-3.054,2.328-4.581,5.395-4.581,9.199c0,3.556,1.789,6.534,5.37,8.937c3.579,2.403,8.849,4.656,15.809,6.759
		c12.817,3.856,22.155,8.636,28.012,14.344c5.858,5.708,8.788,12.818,8.788,21.33c0,9.462-3.581,16.886-10.74,22.267
		c-7.16,5.383-16.798,8.073-28.914,8.073c-8.412,0-16.071-1.54-22.981-4.62c-6.91-3.078-12.179-7.295-15.809-12.653
		c-3.631-5.356-5.445-11.565-5.445-18.626h22.606c0,12.068,7.21,18.101,21.629,18.101c5.357,0,9.538-1.09,12.542-3.267
		C225.702,113.602,227.204,110.56,227.204,106.655z"/>
	<path fill="#B3B3B3" stroke="#666666" stroke-width="2" stroke-miterlimit="10" d="M334.298,135.344h-18.024v-37.49h-35.148v37.49
		h-18.024V47.865h18.024v35.448h35.148V47.865h18.024V135.344z"/>
	<path fill="#B3B3B3" stroke="#666666" stroke-width="2" stroke-miterlimit="10" d="M369.206,135.344h-18.024V47.865h18.024V135.344
		z"/>
	<path fill="#B3B3B3" stroke="#666666" stroke-width="2" stroke-miterlimit="10" d="M403.932,120.863h38.272v14.48h-56.296V47.865
		h18.024V120.863z"/>
	<path fill="#B3B3B3" stroke="#666666" stroke-width="2" stroke-miterlimit="10" d="M470.563,120.863h38.271v14.48h-56.296V47.865
		h18.025V120.863z"/>
	<path fill="#666666" stroke="#4D4D4D" stroke-width="2" stroke-miterlimit="10" d="M613.477,93.588
		c0,8.612-1.522,16.16-4.564,22.649c-3.046,6.489-7.401,11.496-13.069,15.021c-5.668,3.525-12.166,5.287-19.496,5.287
		c-7.25,0-13.719-1.742-19.405-5.227c-5.688-3.485-10.094-8.461-13.218-14.93c-3.124-6.469-4.707-13.908-4.747-22.32v-4.326
		c0-8.612,1.551-16.193,4.655-22.741c3.104-6.549,7.49-11.575,13.158-15.081c5.668-3.504,12.146-5.257,19.436-5.257
		c7.29,0,13.768,1.754,19.436,5.257c5.668,3.506,10.054,8.532,13.158,15.081c3.104,6.548,4.655,14.11,4.655,22.68V93.588z
		 M595.213,89.622c0-9.172-1.642-16.141-4.927-20.908c-3.285-4.767-7.971-7.15-14.06-7.15c-6.048,0-10.715,2.353-14,7.06
		c-3.285,4.707-4.947,11.605-4.985,20.698v4.266c0,8.932,1.64,15.86,4.925,20.787c3.285,4.927,8.011,7.39,14.18,7.39
		c6.048,0,10.695-2.372,13.939-7.119c3.245-4.747,4.887-11.665,4.927-20.758V89.622z"/>
	<path fill="#666666" stroke="#4D4D4D" stroke-width="2" stroke-miterlimit="10" d="M658.958,103.321H644.6v32.022h-18.025V47.865
		h32.503c10.334,0,18.305,2.304,23.913,6.91c5.608,4.606,8.412,11.115,8.412,19.526c0,5.969-1.293,10.946-3.876,14.93
		c-2.584,3.988-6.498,7.161-11.745,9.524l18.926,35.747v0.841H675.36L658.958,103.321z M644.6,88.721h14.538
		c4.526,0,8.031-1.15,10.515-3.456c2.483-2.301,3.725-5.475,3.725-9.522c0-4.125-1.173-7.369-3.514-9.732
		c-2.343-2.363-5.939-3.545-10.786-3.545H644.6V88.721z"/>
	<path fill="#666666" stroke="#4D4D4D" stroke-width="2" stroke-miterlimit="10" d="M765.801,91.485l-11.716,12.618v31.241h-22.531
		V25.996h22.531v49.567l9.914-13.593l27.861-35.973h27.714l-38.827,48.591l39.953,60.757h-26.811L765.801,91.485z"/>
	<path fill="#666666" stroke="#4D4D4D" stroke-width="2" stroke-miterlimit="10" d="M846.397,135.344h-18.023V47.865h18.023V135.344
		z"/>
	<path fill="#666666" stroke="#4D4D4D" stroke-width="2" stroke-miterlimit="10" d="M881.128,120.863h38.271v14.48h-56.296V47.865
		h18.025V120.863z"/>
	<path fill="#666666" stroke="#4D4D4D" stroke-width="2" stroke-miterlimit="10" d="M947.756,120.863h38.271v14.48h-56.296V47.865
		h18.025V120.863z"/>
</g>
<g>
	<polygon fill="#B3B3B3" stroke="#666666" stroke-width="2" stroke-miterlimit="10" points="142.892,34.131 111.676,40.484 
		120.604,49.37 92.764,77.246 77.151,61.628 38.983,99.306 46.319,106.683 77.13,76.331 92.691,91.902 127.971,56.722 
		136.644,65.358 	"/>
	<polygon fill="#666666" stroke="#4D4D4D" stroke-width="2" stroke-miterlimit="10" points="56.059,67.829 38.983,50.978 
		46.319,43.6 63.478,60.504 	"/>
	<polygon fill="#666666" stroke="#4D4D4D" stroke-width="2" stroke-miterlimit="10" points="136.649,84.931 142.892,116.152 
		111.676,109.8 120.604,100.914 109.522,89.816 116.863,82.491 127.976,93.567 	"/>
	<polygon fill="#666666" stroke="#4D4D4D" stroke-width="2" stroke-miterlimit="10" points="142.892,127.494 142.892,137.9 
		18.027,137.9 18.027,23.44 28.432,23.44 28.432,127.494 	"/>
</g>
<g>
</g>
<g>
</g>
<g>
</g>
<g>
</g>
<g>
</g>
<g>
</g>
<g>
</g>
<g>
</g>
<g>
</g>
<g>
</g>
<g>
</g>
<g>
</g>
<g>
</g>
<g>
</g>
<g>
</g>
</svg>
