<?xml version="1.0" encoding="utf-8"?>
<!-- Generator: Adobe Illustrator 21.1.0, SVG Export Plug-In . SVG Version: 6.00 Build 0)  -->
<svg version="1.1" id="Layer_1" xmlns="http://www.w3.org/2000/svg" xmlns:xlink="http://www.w3.org/1999/xlink" x="0px" y="0px"
	 viewBox="0 0 1274 152.406" enable-background="new 0 0 1274 152.406" xml:space="preserve">
<path fill="#76C588" d="M275.869,110.349c0-5.591-1.974-9.884-5.921-12.878c-3.948-2.994-11.053-6.152-21.316-9.474
	c-10.264-3.322-18.39-6.594-24.376-9.819c-16.317-8.815-24.474-20.69-24.474-35.625c0-7.762,2.186-14.688,6.562-20.775
	c4.375-6.084,10.659-10.838,18.849-14.26c8.191-3.42,17.384-5.132,27.584-5.132c10.262,0,19.406,1.86,27.435,5.576
	c8.025,3.718,14.26,8.966,18.702,15.741c4.44,6.777,6.661,14.475,6.661,23.092h-29.607c0-6.578-2.072-11.694-6.217-15.346
	c-4.145-3.651-9.967-5.477-17.468-5.477c-7.237,0-12.863,1.529-16.875,4.589c-4.013,3.059-6.019,7.09-6.019,12.089
	c0,4.673,2.351,8.585,7.056,11.743c4.704,3.158,11.628,6.119,20.773,8.882c16.842,5.068,29.113,11.349,36.81,18.849
	c7.698,7.501,11.548,16.843,11.548,28.028c0,12.434-4.705,22.189-14.114,29.259c-9.409,7.074-22.073,10.609-37.994,10.609
	c-11.053,0-21.118-2.024-30.198-6.071c-9.08-4.044-16.004-9.585-20.773-16.627c-4.771-7.038-7.155-15.197-7.155-24.475h29.705
	c0,15.858,9.474,23.785,28.422,23.785c7.04,0,12.533-1.433,16.481-4.293C273.895,119.478,275.869,115.481,275.869,110.349z"/>
<path fill="#76C588" d="M416.596,148.047h-23.684V98.784h-46.186v49.264h-23.684V33.096h23.684v46.581h46.186V33.096h23.684V148.047
	z"/>
<path fill="#76C588" d="M462.466,148.047h-23.684V33.096h23.684V148.047z"/>
<path fill="#76C588" d="M508.098,129.02h50.291v19.028h-73.976V33.096h23.684V129.02z"/>
<path fill="#76C588" d="M595.655,129.02h50.29v19.028h-73.976V33.096h23.686V129.02z"/>
<path fill="#63A5C9" d="M783.451,93.178c0,11.317-2,21.235-5.997,29.762c-4.003,8.527-9.726,15.106-17.174,19.738
	s-15.987,6.948-25.619,6.948c-9.527,0-18.028-2.29-25.499-6.869c-7.474-4.579-13.264-11.118-17.37-19.618
	s-6.185-18.276-6.237-29.329v-5.685c0-11.317,2.038-21.278,6.117-29.882c4.079-8.606,9.843-15.21,17.291-19.817
	c7.448-4.604,15.96-6.908,25.54-6.908c9.58,0,18.092,2.304,25.54,6.908c7.448,4.607,13.211,11.211,17.291,19.817
	c4.079,8.604,6.117,18.541,6.117,29.803V93.178z M759.452,87.967c0-12.052-2.158-21.211-6.474-27.474s-10.474-9.395-18.475-9.395
	c-7.948,0-14.08,3.092-18.396,9.277c-4.316,6.185-6.5,15.25-6.55,27.198v5.606c0,11.738,2.155,20.841,6.471,27.315
	s10.527,9.711,18.633,9.711c7.948,0,14.054-3.117,18.317-9.354c4.263-6.237,6.422-15.329,6.474-27.277V87.967z"/>
<path fill="#63A5C9" d="M843.215,105.968h-18.867v42.079h-23.686V33.096h42.711c13.58,0,24.054,3.028,31.423,9.08
	c7.369,6.053,11.053,14.606,11.053,25.658c0,7.844-1.699,14.384-5.094,19.618c-3.395,5.24-8.539,9.41-15.434,12.515l24.87,46.974
	v1.105h-25.423L843.215,105.968z M824.348,86.783h19.104c5.948,0,10.553-1.512,13.817-4.541c3.263-3.024,4.895-7.195,4.895-12.513
	c0-5.42-1.541-9.683-4.617-12.789c-3.079-3.105-7.805-4.658-14.174-4.658h-19.025V86.783z"/>
<path fill="#E87E88" d="M983.612,90.415l-15.396,16.58v41.053h-29.607V4.359h29.607v65.133l13.027-17.862l36.611-47.271h36.418
	L1003.25,68.21l52.501,79.837h-35.231L983.612,90.415z"/>
<path fill="#E87E88" d="M1089.52,148.047h-23.683V33.096h23.683V148.047z"/>
<path fill="#E87E88" d="M1135.157,129.02h50.29v19.028h-73.976V33.096h23.686V129.02z"/>
<path fill="#E87E88" d="M1222.71,129.02H1273v19.028h-73.976V33.096h23.686V129.02z"/>
<polygon fill="#76C588" points="165.08,15.049 124.06,23.397 135.791,35.074 99.208,71.705 78.692,51.181 28.538,100.692 
	38.178,110.386 78.664,70.501 99.113,90.963 145.472,44.734 156.869,56.083 "/>
<polygon fill="#E87E88" points="50.976,59.33 28.538,37.186 38.178,27.492 60.725,49.704 "/>
<polygon fill="#E87E88" points="156.876,81.802 165.08,122.829 124.06,114.482 135.791,102.805 121.229,88.222 130.876,78.596 
	145.479,93.151 "/>
<polygon fill="#63A5C9" points="165.08,137.733 165.08,151.406 1,151.406 1,1 14.673,1 14.673,137.733 "/>
<g>
</g>
<g>
</g>
<g>
</g>
<g>
</g>
<g>
</g>
<g>
</g>
<g>
</g>
<g>
</g>
<g>
</g>
<g>
</g>
<g>
</g>
<g>
</g>
<g>
</g>
<g>
</g>
<g>
</g>
</svg>
