<?xml version="1.0" standalone="no"?>
<!DOCTYPE svg PUBLIC "-//W3C//DTD SVG 20010904//EN"
 "http://www.w3.org/TR/2001/REC-SVG-20010904/DTD/svg10.dtd">
<svg version="1.0" xmlns="http://www.w3.org/2000/svg"
 width="700.000000pt" height="700.000000pt" viewBox="0 0 700.000000 700.000000"
 preserveAspectRatio="xMidYMid meet">
<metadata>
Created by potrace 1.11, written by Peter Selinger 2001-2013
</metadata>
<g transform="translate(0.000000,700.000000) scale(0.100000,-0.100000)"
fill="#000000" stroke="none">
<path d="M534 6219 c-2 -3 -3 -1228 -3 -2722 l0 -2717 22 -1 c12 0 1348 -1
2969 -2 l2947 -2 -1 272 c0 197 -3 273 -11 275 -7 2 -1219 3 -2694 3 l-2683
-1 0 60 c-1 34 -1 1135 -1 2449 -1 1313 -4 2387 -7 2388 -39 4 -535 2 -538 -2z"/>
<path d="M6380 5709 c-47 -10 -98 -21 -114 -24 -16 -3 -95 -20 -175 -36 -80
-17 -157 -33 -171 -35 -14 -3 -99 -20 -190 -39 -91 -18 -302 -61 -470 -95
-168 -34 -313 -64 -323 -68 -15 -6 20 -45 197 -222 l216 -215 -636 -637 -635
-637 -364 364 c-201 201 -368 365 -371 365 -4 0 -23 -17 -44 -37 -55 -55
-1066 -1053 -1458 -1439 l-336 -331 192 -193 191 -193 53 50 c57 54 86 82 807
792 266 262 504 497 530 523 25 26 52 48 59 50 6 2 175 -160 375 -359 l362
-362 830 829 830 829 212 -212 c140 -139 214 -206 217 -196 5 16 63 295 71
349 3 19 12 64 20 100 8 36 16 76 19 90 2 14 29 149 59 300 31 151 58 288 61
304 3 16 16 83 30 150 41 198 52 257 45 255 -2 -1 -42 -10 -89 -20z"/>
<path d="M1696 5089 l-190 -192 420 -413 c230 -227 421 -413 424 -414 3 0 91
85 197 189 l192 189 -247 245 c-366 363 -595 587 -601 587 -3 0 -91 -86 -195
-191z"/>
<path d="M5017 3259 l-188 -190 261 -262 261 -262 -217 -215 c-178 -177 -212
-216 -197 -222 10 -4 122 -28 248 -53 127 -26 241 -48 255 -51 14 -3 90 -18
170 -34 80 -16 231 -47 335 -69 105 -21 204 -42 220 -45 35 -6 53 -10 190 -38
55 -11 103 -22 108 -25 13 -8 8 25 -33 226 -21 108 -41 207 -44 221 -5 25 -53
267 -60 305 -30 144 -124 612 -132 655 -3 14 -11 54 -18 90 l-12 65 -210 -207
c-115 -115 -213 -208 -217 -208 -5 0 -123 115 -264 255 -141 140 -259 255
-262 254 -3 0 -91 -86 -194 -190z"/>
</g>
</svg>
