<?xml version="1.0" standalone="no"?>
<!DOCTYPE svg PUBLIC "-//W3C//DTD SVG 20010904//EN"
 "http://www.w3.org/TR/2001/REC-SVG-20010904/DTD/svg10.dtd">
<svg version="1.0" xmlns="http://www.w3.org/2000/svg"
 width="700.000000pt" height="700.000000pt" viewBox="0 0 700.000000 700.000000"
 preserveAspectRatio="xMidYMid meet">
<metadata>
Created by potrace 1.11, written by Peter Selinger 2001-2013
</metadata>
<g transform="translate(0.000000,700.000000) scale(0.100000,-0.100000)"
fill="#000000" stroke="none">
<path d="M0 3500 l0 -3210 3500 0 3500 0 -2 292 -3 293 -3205 0 -3205 0 -1
2910 c-1 1601 -2 2913 -3 2918 -1 4 -131 7 -291 7 l-290 0 0 -3210z"/>
<path d="M6979 6106 c-2 -2 -21 -7 -41 -10 -21 -3 -57 -10 -80 -15 -24 -6 -54
-12 -68 -15 -58 -11 -176 -36 -195 -40 -18 -4 -698 -141 -750 -152 -28 -5
-116 -23 -140 -29 -90 -19 -387 -78 -415 -82 -19 -3 -36 -6 -37 -7 -2 -1 110
-115 247 -252 l250 -249 -781 -781 -780 -781 -434 435 c-239 239 -438 432
-444 430 -5 -1 -253 -244 -551 -538 -298 -294 -644 -636 -770 -760 -396 -390
-799 -790 -805 -800 -7 -12 390 -413 404 -409 6 2 200 191 432 419 232 228
501 494 599 590 98 96 294 289 435 429 l257 254 436 -436 437 -436 983 980
c541 539 988 981 992 982 5 1 117 -105 248 -236 l240 -239 11 49 c6 26 13 59
15 73 2 14 16 81 30 150 14 69 27 136 30 150 2 14 14 72 26 130 12 58 24 116
26 130 3 14 21 104 40 200 20 96 38 186 40 200 2 14 9 45 14 70 5 25 12 56 14
70 3 14 14 72 26 130 12 58 24 116 26 130 9 46 45 225 51 248 4 19 -6 30 -18
18z"/>
<path d="M1385 5378 c-104 -106 -193 -198 -198 -205 -7 -11 195 -216 773 -784
l174 -170 203 203 c112 112 203 206 203 210 0 4 -15 22 -33 40 -546 539 -910
894 -920 896 -7 1 -97 -85 -202 -190z"/>
<path d="M5335 3192 l-206 -206 311 -311 310 -310 -245 -245 c-135 -135 -245
-248 -245 -251 0 -4 21 -10 48 -14 26 -5 52 -9 57 -11 14 -3 113 -23 150 -30
17 -3 82 -16 145 -30 103 -22 273 -57 340 -70 101 -19 943 -192 972 -199 25
-6 27 -5 22 22 -11 58 -315 1581 -330 1651 l-16 73 -241 -240 c-132 -133 -242
-241 -244 -241 -1 0 -142 139 -312 309 l-310 308 -206 -205z"/>
</g>
</svg>
